<svg width="361" height="195" viewBox="0 0 361 195" fill="none" xmlns="http://www.w3.org/2000/svg">
<path d="M310.368 0C318.428 0.000103655 325.788 2.58025 331.43 6.83301C334.803 5.49437 338.55 4.74316 342.502 4.74316C349.686 4.74318 356.205 7.20801 361 11.2148V179C361 187.837 353.837 195 345 195H16C7.16345 195 0 187.837 0 179V9.11816C1.64049 9.30756 3.25202 9.57631 4.83008 9.91992C10.7245 3.85535 19.5432 0 29.4043 0C37.4638 0.000103655 44.8242 2.58025 50.4658 6.83301C53.8396 5.49437 57.5865 4.74316 61.5381 4.74316C68.8536 4.74318 75.4809 7.29868 80.2988 11.4365C85.1403 9.81133 90.4026 8.91895 95.9053 8.91895C99.55 8.91895 103.085 9.31356 106.466 10.0498C112.36 3.98523 121.179 0.129883 131.04 0.129883C139.1 0.129986 146.46 2.71013 152.102 6.96289C155.475 5.62425 159.222 4.87305 163.174 4.87305C171.568 4.87307 179.054 8.23831 183.942 13.4971C190.159 10.4986 197.315 8.78913 204.933 8.78906C208.577 8.78906 212.113 9.18362 215.494 9.91992C221.389 3.85549 230.206 6.6056e-07 240.067 0C248.127 0 255.488 2.58009 261.13 6.83301C264.504 5.49442 268.25 4.74322 272.201 4.74316C277.711 4.74316 282.831 6.19236 287.081 8.67578C292.935 3.3338 301.2 0 310.368 0Z" fill="white"/>
</svg>
